<svg xmlns="http://www.w3.org/2000/svg" viewBox="0 0 90.62 90.19"><defs><style>.cls-1{fill:#434e5b;}</style></defs><g id="Layer_2" data-name="Layer 2"><g id="圖層_1" data-name="圖層 1"><path class="cls-1" d="M54.55,90.11c-10.73,0-21.45-.1-32.17.06-2.79,0-3.47-.8-3.4-3.51.19-7.22.07-14.46.06-21.69,0-4.53-2.1-5.88-6.48-4.24C6.8,62.9,3.86,62.49,1.48,59.05a6.94,6.94,0,0,1,.15-8.76c2.52-3.37,4.94-3.67,10.83-1.51C17,50.44,19,49.07,19,44.28c0-7.37.12-14.73-.06-22.09-.06-2.64.76-3.3,3.29-3.25,7.45.16,14.91.06,22.36,0,4.44,0,5.69-1.77,4.29-6.09a17.78,17.78,0,0,0-1-2.11c-1.59-3.47-.73-6.48,2-8.87s6-2.48,9.07-.52a7.66,7.66,0,0,1,2.85,9c-.17.49-.49.93-.7,1.41C58.93,17,60.23,19,65.75,19c7.19,0,14.39.1,21.58,0,2.38-.05,3.18.58,3.11,3.06-.16,6.83-.2,13.68,0,20.51.1,3.37-.7,3.79-3.69,2.38a10.6,10.6,0,0,0-12.53,2.63A10.89,10.89,0,0,0,83.6,65.59a13.42,13.42,0,0,0,1.55-.21c1.62-.36,3.31-2.4,4.63-1.31,1.5,1.24.54,3.69.57,5.59.09,5.39-.26,10.81.13,16.17.28,3.85-1.19,4.42-4.55,4.35C75.48,90,65,90.11,54.55,90.11Z"/></g></g></svg>